<svg xmlns="http://www.w3.org/2000/svg" color-interpolation-filters="sRGB" style="margin:auto" version="1.0" viewBox="0 0 340 250"><g fill="#0064FB" class="icon-text-wrapper icon-svg-group iconsvg"><g fill="#FF414B" class="iconsvg-imagesvg icon_container" transform="translate(138.2 70.155)"><path fill="none" d="M0 0h63.6v63.6H0z" class="image-rect"/><svg width="63.6" height="63.6" class="image-svg-svg bn" style="overflow:visible" viewBox="0 0 60 57.983"><svg xmlns="http://www.w3.org/2000/svg" width="60" height="57.983" filter="url(#a)" style="overflow:visible" viewBox="0.137 0.132 691.134 667.901"><g fill="#000"><path d="M332.23 642.57a317 317 0 0 1-224.15-541.16 317 317 0 1 1 448.3 448.31 314.94 314.94 0 0 1-224.15 92.85zm0-630c-172.59 0-313 140.41-313 313s140.41 313 313 313 313-140.41 313-313-140.41-313-313-313z"/><path d="M103 480.19a317 317 0 0 1 543.7-326.1A317 317 0 0 1 103 480.19zm540.27-324C554.48 8.14 361.84-40.06 213.83 48.72S17.64 330.13 106.41 478.13s281.41 196.2 429.41 107.43S732 304.15 643.25 156.14z"/><path d="M464.47 648.26a317 317 0 0 1-398.3-429.48 317 317 0 0 1 585.32 22 317 317 0 0 1-187 407.44zm-219-590.71C83.63 117.55.79 298 60.79 459.84S301.26 704.5 463.08 644.5 707.74 404 647.74 242.21 407.27-2.45 245.45 57.55z"/><path d="M159.69 592.27A317 317 0 0 1 42 159.69 317 317 0 0 1 474.59 42a317 317 0 0 1-74.24 581 314.89 314.89 0 0 1-240.66-30.73zM472.6 45.48C322.81-40.25 131.2 11.88 45.48 161.67S11.88 503.08 161.67 588.8s341.41 33.6 427.13-116.2 33.6-341.4-116.2-427.12z"/></g><defs><filter id="a"><feColorMatrix values="0 0 0 0 0.99609375 0 0 0 0 0.25390625 0 0 0 0 0.29296875 0 0 0 1 0"/></filter></defs></svg><g filter="url(#b)"><svg xmlns="http://www.w3.org/2000/svg" xmlns:xlink="http://www.w3.org/1999/xlink" width="33.2" height="32.084" x="13.4" y="12.95" class="image-svg-letter" viewBox="0 0 72.144 41.976"><path d="M20.74 32.254 27.36.144h13.68l-11.09 41.04H11.16L0 .144h13.75l6.63 32.11h.36Zm32.11-21.02q0 1.51 1.55 2.37 1.54.87 4.86 1.88 3.96 1.29 6.51 2.52 2.56 1.22 4.47 3.81 1.9 2.59 1.9 6.77 0 13.39-17.42 13.39-2.88 0-7.02-.5-4.14-.51-7.52-1.3.14-1.51.61-4.43.47-2.91.9-4.35 2.52.36 7.59.86 5.08.51 7.67.51 1.51 0 1.8-.22.43-.29.69-.97.25-.69.25-1.19 0-1.44-1.37-2.2-1.37-.75-4.68-1.83-3.96-1.23-6.55-2.52-2.59-1.3-4.54-4.03-1.94-2.74-1.94-7.2 0-3.17 1.44-6.23 1.44-3.06 2.95-4.14 1.15-.79 4.75-1.51t6.77-.72q8.06 0 13.18 1.51-.08 1.44-.47 3.96-.4 2.52-.83 4.61l-1.66-.08q-9.36-.64-11.95-.64-1.08 0-1.22.07-.29.14-.51.65-.21.5-.21 1.15Z"/></svg></g></svg><defs><filter id="b"><feColorMatrix class="icon-fecolormatrix" values="0 0 0 0 0 0 0 0 0 0.390625 0 0 0 0 0.98046875 0 0 0 1 0"/></filter></defs></g><g><g class="tp-name iconsvg-namesvg" data-gra="path-name"><path d="m77.352 161.864 2.755-13.163h6.678l-5.224 17.153h-8.837l-5.217-17.153h6.67l2.797 13.163h.378Zm21.328-.487q.932 0 3.469-.185.336 0 1.235-.075l.554 3.838q-2.873 1.344-7.459 1.344-4.284 0-6.577-2.158-2.293-2.168-2.293-6.527 0-2.243.57-4.326.58-2.092 1.328-2.907.781-.823 2.906-1.42 2.126-.596 4.217-.596 3.36 0 5.032 1.193 1.68 1.193 2.2 3.301.521 2.109.521 5.645-2.536.151-4.956.151h-5.3q0 1.193.504 1.79.504.596 1.436.764.933.168 2.613.168Zm-4.175-8.576q-.227.109-.336.974-.11.857-.151 1.932h1.94q1.756 0 2.537-.034 0-1.789-.504-2.536-.504-.748-1.73-.748-1.008 0-1.756.412Zm22.747-4.478q.487 0 1.025.118.546.11.806.26 0 .815-.193 2.705-.185 1.882-.336 2.663-.37-.034-1.377-.034-2.352 0-4.175.26v11.56h-6.376V148.7h5.334l.74 2.756h.041q1.084-1.412 2.31-2.277 1.235-.857 2.201-.857Zm11.785 13.541 2.764-13.163h6.67l-5.217 17.153h-8.845l-5.216-17.153h6.678l2.797 13.163h.37Zm21.328-.487q.932 0 3.47-.185.335 0 1.234-.075l.554 3.838q-2.864 1.344-7.45 1.344-4.293 0-6.586-2.158-2.293-2.168-2.293-6.527 0-2.243.58-4.326.579-2.092 1.318-2.907.79-.823 2.915-1.42 2.125-.596 4.208-.596 3.36 0 5.04 1.193 1.672 1.193 2.201 3.301.521 2.109.521 5.645-2.537.151-4.964.151h-5.292q0 1.193.504 1.79.504.596 1.436.764.932.168 2.604.168Zm-4.175-8.576q-.218.109-.336.974-.109.857-.143 1.932h1.932q1.756 0 2.537-.034 0-1.789-.504-2.536-.504-.748-1.73-.748-1.008 0-1.756.412Z"/><path fill="#FF414B" d="M172.961 160.033q0 3.326-2.108 4.78-2.109 1.453-5.99 1.453-2.721 0-6.266-.781.076-.748.353-2.15.285-1.395.47-2.143 1.344.227 2.982.353 1.647.134 2.797.134 1.008 0 1.235-.117.034-.034.093-.202.05-.168.05-.353 0-.747-.932-1.008-.294-.075-2.268-.638-1.983-.554-3.226-2.024-1.252-1.479-1.252-3.68 0-1.15.521-2.57t1.117-1.79q.446-.302 2.168-.612 1.713-.32 3.166-.32 3.1 0 6.225.446 0 .672-.185 2.26-.185 1.578-.336 1.99-3.167-.412-5.107-.412-1.008 0-1.302.118-.076.034-.151.202-.076.168-.076.428 0 .52.336.748.336.26 1.756.63 1.671.487 2.89 1.008 1.209.52 2.124 1.57.916 1.042.916 2.68Zm10.03-7.678v6.452q0 .672.033 1.394.042.73.227.916.26.26 1.823.26l1.268-.034q.336 1.79.336 4.142-.705.26-2.066.478-1.361.227-2.596.227-2.57 0-3.965-1.134-1.402-1.142-1.402-3.528v-9.173h-2.798v-3.393l2.798-.26 1.68-4.108 4.662-.26v4.367h3.948v3.654h-3.948Zm16.632-3.654h6.375v17.153h-5.183l-.705-2.873q-2.688 3.243-6.418 3.243-1.344 0-2.52-.37-1.167-.37-1.772-1.083-.328-.412-.496-2.05-.168-1.638-.168-4.998v-9.022h6.376v8.946q0 .748.033 1.756.042 1.008.227 1.268.26.37 1.487.37l.596-.034q1.05-.042 2.168-.487v-11.819Zm20.1-5.224 6.418-.26v22.637h-5.258l-.53-2.873q-.738 1.454-2.2 2.31-1.453.866-3.276.866-2.915 0-4.645-2.092-1.73-2.092-1.73-6.266 0-3.167.739-5.225.747-2.05 1.755-2.94.639-.563 2.596-.933 1.957-.378 3.486-.378 1.344 0 2.755.26-.11-1.788-.11-1.973v-3.133Zm-2.049 17.682q1.008 0 2.083-.336v-8.098q-1.075-.151-2.385-.151-1.117 0-1.411.193-.412.294-.656 1.697-.243 1.394-.243 2.923 0 2.276.689 3.024.688.748 1.923.748Zm14.843-14.583q-1.268 0-2.184-.857-.916-.865-.916-2.058 0-1.192.916-2.05.916-.856 2.184-.856 1.268 0 2.159.857.899.857.899 2.05 0 1.192-.9 2.057-.89.857-2.158.857Zm-3.209 19.278v-17.153h6.376v17.153h-6.376Zm17.825.487q-4.477 0-6.695-2.108-2.217-2.108-2.217-6.661 0-2.495.462-4.377.47-1.881 1.142-2.629.857-.974 3.15-1.604 2.293-.639 4.31-.639 4.812 0 6.862 2.058 2.05 2.05 2.05 6.56 0 4.848-2.201 7.124t-6.863 2.276Zm.11-4.368q1.46 0 1.906-1.024.445-1.025.445-3.638 0-1.822-.185-2.814-.184-.99-.688-1.453-.504-.47-1.546-.47-1.495 0-1.722.269-.294.26-.479 1.638-.193 1.377-.193 2.872 0 2.537.504 3.579.504 1.041 1.957 1.041Zm25.25-1.94q0 3.326-2.109 4.78-2.108 1.453-5.98 1.453-2.722 0-6.267-.781.076-.748.353-2.15.277-1.395.462-2.143 1.344.227 2.99.353 1.638.134 2.797.134 1 0 1.227-.117.042-.034.092-.202.059-.168.059-.353 0-.747-.932-1.008-.303-.075-2.277-.638-1.974-.554-3.225-2.024-1.252-1.479-1.252-3.68 0-1.15.52-2.57.53-1.42 1.126-1.79.446-.302 2.16-.612 1.713-.32 3.174-.32 3.092 0 6.225.446 0 .672-.185 2.26-.185 1.578-.336 1.99-3.175-.412-5.107-.412-1.008 0-1.31.118-.076.034-.152.202-.067.168-.067.428 0 .52.328.748.336.26 1.755.63 1.68.487 2.89 1.008 1.21.52 2.125 1.57.916 1.042.916 2.68Z" data-gra="path-name-1"/></g><path fill="#1B4965" d="M71.602 176.091q0-.864.249-1.564.239-.699.671-1.177.433-.488 1.022-.745.588-.267 1.288-.267.662 0 1.159.276.497.267.819.625l-.525.58q-.285-.304-.635-.488-.35-.184-.81-.184-.514 0-.938.203-.423.202-.717.589-.295.377-.46.92-.166.542-.166 1.214 0 .68.157 1.233.156.543.45.929.286.386.7.598.414.212.929.212.533 0 .92-.212.395-.212.745-.598l.524.561q-.432.497-.975.773-.543.276-1.233.276-.69 0-1.27-.248-.579-.258-1.002-.736-.423-.479-.662-1.178-.24-.708-.24-1.592Zm12.76 3.754q-.69 0-1.25-.258-.57-.266-.985-.763-.405-.488-.635-1.187-.22-.7-.22-1.573 0-.874.22-1.564.23-.69.635-1.169.414-.478.985-.736.56-.257 1.25-.257.682 0 1.252.267.57.257.984.736.414.478.635 1.168.23.69.23 1.555 0 .874-.23 1.573-.22.7-.635 1.187-.414.497-.984.763-.57.258-1.251.258Zm0-.8q.488 0 .875-.212.395-.212.671-.598.286-.396.442-.938.156-.552.156-1.233 0-.672-.156-1.215-.156-.542-.442-.92-.276-.377-.671-.58-.387-.202-.874-.202-.488 0-.883.203-.387.202-.672.58-.276.377-.432.92-.157.542-.157 1.214 0 .68.157 1.233.156.542.432.938.285.386.672.598.395.212.883.212Zm8.336.671v-7.24h1.086l1.398 3.882.534 1.481h.046l.506-1.48 1.389-3.883h1.085v7.24h-.874v-3.983q0-.488.037-1.077.037-.58.083-1.067h-.046l-.58 1.61-1.398 3.79h-.515l-1.399-3.79-.58-1.61h-.045l.083 1.067q.046.589.046 1.077v3.983h-.856Zm11.712 0v-7.24h2.217q.598 0 1.095.11.496.11.837.359.35.248.543.653.193.414.193 1.003 0 .58-.193.994-.194.423-.543.699-.36.276-.847.414-.487.138-1.085.138h-1.307v2.87h-.91Zm.91-3.625h1.196q.948 0 1.408-.358.46-.36.46-1.132 0-.782-.47-1.086-.46-.303-1.398-.303h-1.196v2.88Zm9.127 3.625v-7.24h.91v6.458h3.175v.782h-4.085Zm9.043 0v-7.24h4.177v.773h-3.257v2.272h2.742v.782h-2.742v2.631h3.368v.782h-4.288Zm11.004 0v-6.467h-2.19v-.773h5.3v.773h-2.19v6.467h-.92Zm8.096 0v-7.24h4.167v.773H143.5v2.272h2.751v.782h-2.75v2.631h3.367v.782h-4.278Zm16.2 0-1.536-7.24h.948l.764 3.937q.1.598.211 1.169.11.58.212 1.177h.037q.128-.598.257-1.177l.258-1.169 1.003-3.937h.837l1.003 3.937q.138.58.266 1.16.13.588.267 1.186h.046q.092-.598.193-1.177.102-.58.212-1.169l.764-3.937h.883l-1.5 7.24h-1.104l-1.095-4.36q-.1-.424-.184-.82-.082-.404-.174-.827h-.037q-.092.423-.184.828-.092.395-.184.818l-1.067 4.361h-1.095Zm11.565 0v-7.24h4.168v.773h-3.257v2.272h2.75v.782h-2.75v2.631h3.367v.782h-4.278Zm9.495 0v-7.24h2.152q.552 0 1.012.101.46.092.782.304.322.211.506.552.184.33.184.81 0 .542-.312.974-.304.433-.948.598v.046q.8.12 1.242.552.442.433.442 1.187 0 .525-.203.92-.202.405-.561.663-.368.266-.874.404-.506.13-1.113.13h-2.31Zm.92-4.149h1.067q.938 0 1.343-.322t.405-.93q0-.597-.433-.855-.423-.257-1.27-.257h-1.112v2.364Zm0 3.422h1.25q.94 0 1.464-.35.515-.349.515-1.085 0-.671-.506-.993-.506-.313-1.472-.313h-1.251v2.741Zm14.628-.211.552-.644q.386.414.91.662.525.249 1.095.249.718 0 1.113-.332.396-.322.396-.855 0-.276-.092-.47-.092-.193-.258-.33-.156-.139-.377-.249-.22-.11-.478-.23l-1.04-.45q-.248-.111-.515-.268-.267-.156-.478-.377-.203-.22-.34-.524-.13-.304-.13-.7 0-.404.166-.763.175-.35.478-.607.304-.258.718-.405.414-.147.91-.147.654 0 1.206.248.552.249.938.653l-.496.59q-.332-.314-.736-.498-.405-.184-.911-.184-.607 0-.975.286-.368.276-.368.772 0 .267.1.451.102.184.286.322.175.138.386.24.203.1.424.193l1.03.441q.313.129.589.304.276.175.469.395.202.23.313.534.12.304.12.7 0 .432-.175.809-.166.368-.488.653-.322.285-.773.442-.45.156-1.03.156-.755 0-1.408-.285-.653-.285-1.131-.782Zm12.778 1.067q-.68 0-1.25-.258-.571-.266-.976-.763-.414-.488-.635-1.187-.23-.7-.23-1.573 0-.874.23-1.564.22-.69.635-1.169.405-.478.975-.736.57-.257 1.251-.257.69 0 1.252.267.57.257.984.736.414.478.644 1.168.22.69.22 1.555 0 .874-.22 1.573-.23.7-.644 1.187-.414.497-.984.763-.562.258-1.252.258Zm0-.8q.488 0 .884-.212.386-.212.671-.598.276-.396.433-.938.156-.552.156-1.233 0-.672-.156-1.215-.157-.542-.433-.92-.285-.377-.671-.58-.396-.202-.884-.202-.487 0-.874.203-.395.202-.671.58-.285.377-.442.92-.156.542-.156 1.214 0 .68.156 1.233.157.542.442.938.276.386.671.598.387.212.874.212Zm8.345.671v-7.24h.91v6.458h3.175v.782h-4.085Zm8.685-2.99v-4.25h.92v4.269q0 .653.128 1.094.138.442.36.709.23.267.542.377.304.12.662.12.36 0 .672-.12.304-.11.543-.377.23-.267.359-.709.138-.441.138-1.094v-4.27h.883v4.251q0 .874-.203 1.463-.202.598-.542.966-.35.377-.828.534-.47.156-1.022.156t-1.04-.156q-.478-.157-.827-.534-.34-.368-.543-.966-.202-.589-.202-1.463Zm12.337 2.99v-6.467h-2.18v-.773h5.299v.773h-2.19v6.467h-.93Zm8.096 0v-7.24h.92v7.24h-.92Zm9.255.129q-.68 0-1.251-.258-.57-.266-.975-.763-.414-.488-.635-1.187-.23-.7-.23-1.573 0-.874.23-1.564.22-.69.635-1.169.404-.478.975-.736.57-.257 1.25-.257.69 0 1.252.267.57.257.985.736.414.478.644 1.168.22.69.22 1.555 0 .874-.22 1.573-.23.7-.644 1.187-.414.497-.985.763-.561.258-1.251.258Zm0-.8q.488 0 .883-.212.387-.212.672-.598.276-.396.432-.938.157-.552.157-1.233 0-.672-.157-1.215-.156-.542-.432-.92-.285-.377-.672-.58-.395-.202-.883-.202t-.874.203q-.396.202-.672.58-.285.377-.441.92-.157.542-.157 1.214 0 .68.157 1.233.156.542.441.938.276.386.672.598.386.212.874.212Zm8.344.671v-7.24h.948l2.613 4.545.782 1.5h.046q-.028-.553-.074-1.142-.037-.588-.037-1.159v-3.744h.874v7.24h-.947l-2.631-4.563-.782-1.49h-.046q.046.552.082 1.122.037.57.037 1.14v3.791h-.865Z" class="tp-slogan iconsvg-slogansvg" data-gra="path-slogan"/></g></g></svg>